<svg width="12" height="12" viewBox="0 0 12 12" fill="none" xmlns="http://www.w3.org/2000/svg">
<g clip-path="url(#clip0_468_166)">
<path d="M11.3076 7.79732L8.38723 6.1123L11.3076 4.42729C11.4722 4.33232 11.5285 4.12221 11.4335 3.95764L10.7456 2.76676C10.6506 2.6024 10.4403 2.5459 10.2757 2.64086L7.35533 4.32588V0.956055C7.35533 0.766133 7.20129 0.612305 7.01137 0.612305H5.63551C5.44559 0.612305 5.29154 0.766133 5.29154 0.956055V4.32609L2.37117 2.64107C2.2066 2.54611 1.99627 2.60262 1.90131 2.76697L1.21338 3.95764C1.11842 4.12199 1.17471 4.33232 1.33928 4.42729L4.25965 6.1123L1.33928 7.79732C1.17471 7.89228 1.11842 8.10262 1.21338 8.26697L1.90131 9.45785C1.99627 9.62221 2.2066 9.6785 2.37117 9.58375L5.29154 7.89873V11.2686C5.29154 11.4585 5.44559 11.6123 5.63551 11.6123H7.01137C7.20129 11.6123 7.35533 11.4585 7.35533 11.2686V7.89852L10.2757 9.58354C10.4403 9.6785 10.6506 9.62221 10.7456 9.45764L11.4335 8.26676C11.5285 8.1024 11.4722 7.89228 11.3076 7.79732Z" fill="#21746A"/>
</g>
<defs>
<clipPath id="clip0_468_166">
<rect width="11" height="11" fill="white" transform="translate(0.823486 0.612305)"/>
</clipPath>
</defs>
</svg>

