<svg width="13" height="13" viewBox="0 0 13 13" fill="none" xmlns="http://www.w3.org/2000/svg">
<g clip-path="url(#clip0_469_17)">
<path d="M6.34131 0.667969C3.12899 0.667969 0.528809 3.26763 0.528809 6.48047C0.528809 9.69279 3.12847 12.293 6.34131 12.293C7.46992 12.293 8.57589 11.9616 9.51493 11.3502C9.7963 11.1671 9.85771 10.781 9.64506 10.5212L9.40654 10.2298C9.22675 10.0102 8.91015 9.95637 8.67123 10.1096C7.98006 10.5529 7.16898 10.793 6.34131 10.793C3.96339 10.793 2.02881 8.85839 2.02881 6.48047C2.02881 4.10255 3.96339 2.16797 6.34131 2.16797C8.68832 2.16797 10.6538 3.51841 10.6538 5.91797C10.6538 6.82702 10.1594 7.78692 9.29045 7.87952C8.88383 7.86888 8.89412 7.57819 8.97461 7.17584L9.52382 4.33732C9.59099 3.99023 9.32509 3.66797 8.97158 3.66797H7.91734C7.8395 3.66797 7.76438 3.69662 7.70632 3.74846C7.64826 3.80031 7.61131 3.87171 7.60253 3.94905L7.60229 3.95121C7.25783 3.53166 6.65429 3.44086 6.19672 3.44086C4.44875 3.44086 2.96631 4.89947 2.96631 6.9907C2.96631 8.52124 3.82846 9.47203 5.21631 9.47203C5.84875 9.47203 6.56089 9.10554 6.97391 8.5736C7.19708 9.37291 7.92578 9.37289 8.63118 9.37289C11.1837 9.37289 12.1538 7.69448 12.1538 5.91797C12.1538 2.72234 9.57622 0.667969 6.34131 0.667969ZM5.83318 7.80305C5.31172 7.80305 4.98779 7.43688 4.98779 6.84748C4.98779 5.79295 5.70918 5.14289 6.36193 5.14289C6.8844 5.14289 7.19633 5.5001 7.19633 6.09844C7.19633 7.15455 6.40239 7.80305 5.83318 7.80305Z" fill="#21746A"/>
</g>
<defs>
<clipPath id="clip0_469_17">
<rect width="12" height="12" fill="white" transform="translate(0.341309 0.480469)"/>
</clipPath>
</defs>
</svg>

