<svg width="19" height="16" viewBox="0 0 19 16" fill="none" xmlns="http://www.w3.org/2000/svg">
<path d="M8.62914 15.4566L6.88563 14.9507C6.70271 14.8993 6.59981 14.7078 6.65126 14.5248L10.5527 1.08549C10.6042 0.902567 10.7957 0.799671 10.9786 0.851119L12.7221 1.35702C12.905 1.40847 13.0079 1.59997 12.9565 1.7829L9.05502 15.2222C9.00071 15.4052 8.81207 15.5109 8.62914 15.4566ZM5.37078 12.2497L6.6141 10.9235C6.74558 10.7834 6.737 10.5605 6.59124 10.4319L4.00169 8.15387L6.59124 5.87587C6.737 5.74725 6.74844 5.52431 6.6141 5.38425L5.37078 4.05804C5.24216 3.92084 5.02493 3.91227 4.88488 4.04375L0.766187 7.90234C0.620418 8.03668 0.620418 8.26819 0.766187 8.40253L4.88488 12.264C5.02493 12.3955 5.24216 12.3897 5.37078 12.2497ZM14.7229 12.2668L18.8416 8.40539C18.9873 8.27105 18.9873 8.03954 18.8416 7.9052L14.7229 4.04089C14.5857 3.91227 14.3684 3.91799 14.237 4.05518L12.9936 5.38139C12.8622 5.52145 12.8707 5.74439 13.0165 5.87301L15.6061 8.15387L13.0165 10.4319C12.8707 10.5605 12.8593 10.7834 12.9936 10.9235L14.237 12.2497C14.3656 12.3897 14.5828 12.3955 14.7229 12.2668Z" fill="#304B47"/>
</svg>

