<svg width="15" height="16" viewBox="0 0 15 16" fill="none" xmlns="http://www.w3.org/2000/svg">
<path d="M13.6596 1.11515H9.95941L9.66956 0.53853C9.60816 0.415256 9.51358 0.31156 9.39646 0.239109C9.27934 0.166657 9.14433 0.128325 9.00661 0.128423H5.48216C5.34475 0.127895 5.20997 0.166085 5.09327 0.238617C4.97656 0.311149 4.88265 0.415089 4.82229 0.53853L4.53244 1.11515H0.832229C0.701381 1.11515 0.575893 1.16712 0.483369 1.25965C0.390846 1.35217 0.338867 1.47766 0.338867 1.60851L0.338867 2.59523C0.338867 2.72608 0.390846 2.85157 0.483369 2.94409C0.575893 3.03661 0.701381 3.08859 0.832229 3.08859H13.6596C13.7905 3.08859 13.916 3.03661 14.0085 2.94409C14.101 2.85157 14.153 2.72608 14.153 2.59523V1.60851C14.153 1.47766 14.101 1.35217 14.0085 1.25965C13.916 1.16712 13.7905 1.11515 13.6596 1.11515V1.11515ZM1.97929 14.5284C2.00282 14.9042 2.16867 15.2568 2.44307 15.5146C2.71747 15.7724 3.0798 15.9159 3.45629 15.916H11.0356C11.4121 15.9159 11.7744 15.7724 12.0488 15.5146C12.3232 15.2568 12.489 14.9042 12.5126 14.5284L13.1663 4.07531H1.32559L1.97929 14.5284Z" fill="#304B47"/>
</svg>

