<svg width="15" height="14" viewBox="0 0 15 14" fill="none" xmlns="http://www.w3.org/2000/svg">
<path d="M7.49995 10.9625C5.72221 10.9625 4.28315 9.49472 4.15073 7.63472L1.69214 5.60797C1.36893 6.04047 1.07151 6.49772 0.831512 6.99772C0.777897 7.11085 0.749962 7.23583 0.749962 7.36259C0.749962 7.48935 0.777897 7.61434 0.831512 7.72747C2.10253 10.3727 4.61878 12.1625 7.49995 12.1625C8.13065 12.1625 8.73909 12.0625 9.3255 11.901L8.10932 10.8972C7.90847 10.9386 7.70451 10.9604 7.49995 10.9625ZM14.8551 12.415L12.2641 10.279C13.0512 9.57144 13.6985 8.70404 14.1684 7.72722C14.222 7.61409 14.2499 7.4891 14.2499 7.36234C14.2499 7.23558 14.222 7.1106 14.1684 6.99747C12.8974 4.35222 10.3811 2.56247 7.49995 2.56247C6.29327 2.56403 5.10619 2.88806 4.04714 3.50497L1.06542 1.04672C1.02654 1.01444 0.982073 0.990661 0.93457 0.976724C0.887067 0.962788 0.837454 0.958973 0.788568 0.965497C0.739682 0.972021 0.692481 0.988756 0.649661 1.01475C0.606841 1.04074 0.569241 1.07547 0.539012 1.11697L0.0789337 1.74872C0.0179021 1.83246 -0.00944578 1.93864 0.00290487 2.04389C0.0152555 2.14914 0.0662933 2.24485 0.144793 2.30997L13.9345 13.6782C13.9734 13.7105 14.0178 13.7343 14.0653 13.7482C14.1128 13.7621 14.1624 13.766 14.2113 13.7594C14.2602 13.7529 14.3074 13.7362 14.3502 13.7102C14.3931 13.6842 14.4307 13.6495 14.4609 13.608L14.9212 12.9762C14.9822 12.8924 15.0095 12.7862 14.9971 12.681C14.9847 12.5757 14.9336 12.48 14.8551 12.415ZM10.5492 8.86497L9.62807 8.10547C9.70564 7.86634 9.74679 7.61549 9.74995 7.36247C9.75452 6.99203 9.67759 6.62562 9.52532 6.29265C9.37305 5.95969 9.14969 5.66946 8.87319 5.44527C8.59669 5.22109 8.27475 5.0692 7.93323 5.0018C7.59171 4.93441 7.24014 4.95339 6.90675 5.05722C7.04808 5.26149 7.12453 5.50859 7.12495 5.76247C7.12145 5.84695 7.10935 5.93078 7.08886 6.01247L5.36362 4.59022C5.96291 4.05602 6.71895 3.76308 7.49995 3.76247C7.94323 3.76221 8.38221 3.85514 8.7918 4.03597C9.20138 4.21679 9.57354 4.48195 9.88698 4.8163C10.2004 5.15064 10.449 5.54761 10.6185 5.9845C10.7881 6.42139 10.8752 6.88964 10.8749 7.36247C10.8749 7.90322 10.751 8.40722 10.5492 8.86522V8.86497Z" fill="#21746A"/>
</svg>

