<svg width="16" height="11" viewBox="0 0 16 11" fill="none" xmlns="http://www.w3.org/2000/svg">
<path d="M15.5178 4.95659C14.1055 2.01742 11.3097 0.0288086 8.10838 0.0288086C4.90708 0.0288086 2.11047 2.01881 0.699009 4.95686C0.639437 5.08256 0.608398 5.22143 0.608398 5.36228C0.608398 5.50313 0.639437 5.642 0.699009 5.7677C2.11125 8.70686 4.90708 10.6955 8.10838 10.6955C11.3097 10.6955 14.1063 8.70547 15.5178 5.76742C15.5773 5.64172 15.6084 5.50285 15.6084 5.362C15.6084 5.22116 15.5773 5.08228 15.5178 4.95659V4.95659ZM8.10838 9.36214C7.3667 9.36214 6.64168 9.12755 6.025 8.68802C5.40831 8.24849 4.92766 7.62378 4.64384 6.89288C4.36001 6.16197 4.28574 5.3577 4.43044 4.58178C4.57513 3.80586 4.93229 3.09312 5.45673 2.53371C5.98118 1.9743 6.64937 1.59334 7.37679 1.439C8.10422 1.28466 8.85822 1.36387 9.54345 1.66662C10.2287 1.96937 10.8143 2.48206 11.2264 3.13986C11.6385 3.79766 11.8584 4.57102 11.8584 5.36214C11.8586 5.8875 11.7618 6.40776 11.5734 6.89318C11.3851 7.3786 11.1088 7.81965 10.7606 8.19114C10.4123 8.56262 9.99881 8.85725 9.54373 9.05818C9.08865 9.25911 8.60091 9.3624 8.10838 9.36214V9.36214ZM8.10838 2.69548C7.88524 2.6988 7.66354 2.73421 7.44927 2.80075C7.62589 3.05677 7.71064 3.37183 7.68817 3.68879C7.66569 4.00575 7.53746 4.30363 7.32674 4.52839C7.11603 4.75316 6.83677 4.88993 6.53962 4.91391C6.24247 4.93789 5.9471 4.84748 5.70708 4.65909C5.57041 5.19619 5.59508 5.7655 5.77762 6.28686C5.96017 6.80823 6.2914 7.25541 6.72469 7.56546C7.15798 7.87551 7.67151 8.03282 8.19301 8.01525C8.71451 7.99768 9.21771 7.80611 9.63179 7.46751C10.0459 7.1289 10.35 6.66031 10.5013 6.12769C10.6526 5.59508 10.6436 5.02525 10.4754 4.49841C10.3072 3.97158 9.98837 3.51426 9.56376 3.19084C9.13915 2.86741 8.63014 2.69417 8.10838 2.69548V2.69548Z" fill="#21746A"/>
</svg>

