<svg width="18" height="17" viewBox="0 0 18 17" fill="none" xmlns="http://www.w3.org/2000/svg">
<path d="M16.0785 2.43794V13.8708H17.2218C17.3734 13.8708 17.5188 13.931 17.626 14.0382C17.7332 14.1454 17.7935 14.2908 17.7935 14.4425V15.5857C17.7935 15.7374 17.7332 15.8828 17.626 15.99C17.5188 16.0972 17.3734 16.1574 17.2218 16.1574H11.5054C11.3538 16.1574 11.2084 16.0972 11.1012 15.99C10.994 15.8828 10.9338 15.7374 10.9338 15.5857V14.4425C10.9338 14.2908 10.994 14.1454 11.1012 14.0382C11.2084 13.931 11.3538 13.8708 11.5054 13.8708H12.6487V9.29766H5.78896V13.8708H6.93224C7.08385 13.8708 7.22925 13.931 7.33646 14.0382C7.44366 14.1454 7.50389 14.2908 7.50389 14.4425V15.5857C7.50389 15.7374 7.44366 15.8828 7.33646 15.99C7.22925 16.0972 7.08385 16.1574 6.93224 16.1574H1.21581C1.0642 16.1574 0.9188 16.0972 0.811596 15.99C0.704392 15.8828 0.644165 15.7374 0.644165 15.5857V14.4425C0.644165 14.2908 0.704392 14.1454 0.811596 14.0382C0.9188 13.931 1.0642 13.8708 1.21581 13.8708H2.3591V2.43794H1.21581C1.0642 2.43794 0.9188 2.37771 0.811596 2.27051C0.704392 2.16331 0.644165 2.01791 0.644165 1.8663V0.723011C0.644165 0.571401 0.704392 0.426002 0.811596 0.318798C0.9188 0.211594 1.0642 0.151367 1.21581 0.151367H6.93224C7.08385 0.151367 7.22925 0.211594 7.33646 0.318798C7.44366 0.426002 7.50389 0.571401 7.50389 0.723011V1.8663C7.50389 2.01791 7.44366 2.16331 7.33646 2.27051C7.22925 2.37771 7.08385 2.43794 6.93224 2.43794H5.78896V7.01109H12.6487V2.43794H11.5054C11.3538 2.43794 11.2084 2.37771 11.1012 2.27051C10.994 2.16331 10.9338 2.01791 10.9338 1.8663V0.723011C10.9338 0.571401 10.994 0.426002 11.1012 0.318798C11.2084 0.211594 11.3538 0.151367 11.5054 0.151367H17.2218C17.3734 0.151367 17.5188 0.211594 17.626 0.318798C17.7332 0.426002 17.7935 0.571401 17.7935 0.723011V1.8663C17.7935 2.01791 17.7332 2.16331 17.626 2.27051C17.5188 2.37771 17.3734 2.43794 17.2218 2.43794H16.0785Z" fill="#304B47"/>
</svg>

