<svg width="20" height="15" viewBox="0 0 20 15" fill="none" xmlns="http://www.w3.org/2000/svg">
<path d="M17.3577 14.0134H2.49496C1.54782 14.0134 0.780029 13.2456 0.780029 12.2985V2.00888C0.780029 1.06173 1.54782 0.293945 2.49496 0.293945H17.3577C18.3048 0.293945 19.0726 1.06173 19.0726 2.00888V12.2985C19.0726 13.2456 18.3048 14.0134 17.3577 14.0134ZM4.78153 2.2947C3.67655 2.2947 2.78078 3.19046 2.78078 4.29545C2.78078 5.40044 3.67655 6.2962 4.78153 6.2962C5.88652 6.2962 6.78229 5.40044 6.78229 4.29545C6.78229 3.19046 5.88652 2.2947 4.78153 2.2947ZM3.0666 11.7268H16.786V7.72531L13.6593 4.5986C13.4919 4.43118 13.2205 4.43118 13.053 4.5986L8.2114 9.44024L6.22797 7.45682C6.06055 7.2894 5.78909 7.2894 5.62164 7.45682L3.0666 10.0119V11.7268Z" fill="#304B47"/>
</svg>

