<svg width="13" height="13" viewBox="0 0 13 13" fill="none" xmlns="http://www.w3.org/2000/svg">
<g clip-path="url(#clip0_468_146)">
<path d="M11.9877 5.08418C12.0792 5.01152 12.2151 5.07949 12.2151 5.19434V9.9873C12.2151 10.6084 11.7112 11.1123 11.0901 11.1123H1.34009C0.718994 11.1123 0.215088 10.6084 0.215088 9.9873V5.19668C0.215088 5.07949 0.348682 5.01387 0.442432 5.08652C0.967432 5.49434 1.66353 6.0123 4.05415 7.74902C4.54868 8.10996 5.38306 8.86934 6.21509 8.86465C7.05181 8.87168 7.90259 8.0959 8.37837 7.74902C10.769 6.0123 11.4627 5.49199 11.9877 5.08418ZM6.21509 8.1123C6.75884 8.12168 7.54165 7.42793 7.9354 7.14199C11.0456 4.88496 11.2823 4.68809 11.9995 4.12559C12.1354 4.02012 12.2151 3.85605 12.2151 3.68262V3.2373C12.2151 2.61621 11.7112 2.1123 11.0901 2.1123H1.34009C0.718994 2.1123 0.215088 2.61621 0.215088 3.2373V3.68262C0.215088 3.85605 0.294775 4.01777 0.430713 4.12559C1.1479 4.68574 1.38462 4.88496 4.49478 7.14199C4.88853 7.42793 5.67134 8.12168 6.21509 8.1123Z" fill="#21746A"/>
</g>
<defs>
<clipPath id="clip0_468_146">
<rect width="12" height="12" fill="white" transform="translate(0.215088 0.612305)"/>
</clipPath>
</defs>
</svg>

