<svg width="11" height="11" viewBox="0 0 11 11" fill="none" xmlns="http://www.w3.org/2000/svg">
<path d="M4.68708 0.452148C4.53145 0.452148 4.40529 0.578306 4.40529 0.73393V4.4505H0.688642C0.533018 4.4505 0.40686 4.57666 0.40686 4.73228V5.98517C0.40686 6.14079 0.533018 6.26695 0.688642 6.26695H4.40529V9.9836C4.40529 10.1392 4.53145 10.2654 4.68708 10.2654H5.93996C6.09558 10.2654 6.22174 10.1392 6.22174 9.9836V6.26695H9.93831C10.0939 6.26695 10.2201 6.14079 10.2201 5.98517V4.73228C10.2201 4.57666 10.0939 4.4505 9.93831 4.4505H6.22174V0.73393C6.22174 0.578306 6.09558 0.452148 5.93996 0.452148H4.68708Z" fill="#596F6C"/>
</svg>

