<svg width="19" height="17" viewBox="0 0 19 17" fill="none" xmlns="http://www.w3.org/2000/svg">
<path d="M16.9427 8.15438H14.0844V5.8678C14.0844 4.60661 15.1098 3.58123 16.371 3.58123H16.6568C17.132 3.58123 17.5143 3.19894 17.5143 2.72376V1.00883C17.5143 0.533654 17.132 0.151367 16.6568 0.151367H16.371C13.2127 0.151367 10.6546 2.70947 10.6546 5.8678V14.4425C10.6546 15.3892 11.4227 16.1574 12.3695 16.1574H16.9427C17.8894 16.1574 18.6576 15.3892 18.6576 14.4425V9.86931C18.6576 8.92252 17.8894 8.15438 16.9427 8.15438ZM6.65307 8.15438H3.79485V5.8678C3.79485 4.60661 4.82024 3.58123 6.08143 3.58123H6.36725C6.84243 3.58123 7.22471 3.19894 7.22471 2.72376V1.00883C7.22471 0.533654 6.84243 0.151367 6.36725 0.151367H6.08143C2.92309 0.151367 0.36499 2.70947 0.36499 5.8678V14.4425C0.36499 15.3892 1.13314 16.1574 2.07992 16.1574H6.65307C7.59985 16.1574 8.368 15.3892 8.368 14.4425V9.86931C8.368 8.92252 7.59985 8.15438 6.65307 8.15438Z" fill="#304B47"/>
</svg>

