<svg viewBox="0 0 45 46" fill="none" xmlns="http://www.w3.org/2000/svg">
<path fill-rule="evenodd" clip-rule="evenodd" d="M37.1083 19.8042C37.1083 29.361 29.361 37.1083 19.8042 37.1083C10.2473 37.1083 2.5 29.361 2.5 19.8042C2.5 10.2473 10.2473 2.5 19.8042 2.5C29.361 2.5 37.1083 10.2473 37.1083 19.8042ZM32.2448 35.214C28.8447 37.9624 24.5167 39.6083 19.8042 39.6083C8.86663 39.6083 0 30.7417 0 19.8042C0 8.86663 8.86663 0 19.8042 0C30.7417 0 39.6083 8.86663 39.6083 19.8042C39.6083 25.1289 37.5069 29.9628 34.0882 33.5218L34.7471 34.1808L43.8343 43.268C44.3225 43.7561 44.3225 44.5476 43.8343 45.0357C43.3462 45.5239 42.5547 45.5239 42.0666 45.0357L32.9793 35.9485L32.2448 35.214Z" fill="#ffffff69"/>
</svg>

