<svg width="14" height="14" viewBox="0 0 14 14" fill="none" xmlns="http://www.w3.org/2000/svg">
<path d="M6.85181 7.52103C8.80069 7.52103 10.3819 5.93986 10.3819 3.99098C10.3819 2.0421 8.80069 0.460938 6.85181 0.460938C4.90293 0.460938 3.32176 2.0421 3.32176 3.99098C3.32176 5.93986 4.90293 7.52103 6.85181 7.52103ZM9.98962 8.30548H8.63889C8.09468 8.55553 7.48918 8.69771 6.85181 8.69771C6.21444 8.69771 5.61139 8.55553 5.06472 8.30548H3.71399C1.98084 8.30548 0.576172 9.71014 0.576172 11.4433V11.8355C0.576172 12.4852 1.10323 13.0122 1.75285 13.0122H11.9508C12.6004 13.0122 13.1274 12.4852 13.1274 11.8355V11.4433C13.1274 9.71014 11.7228 8.30548 9.98962 8.30548Z" fill="#21746A"/>
</svg>

