<svg width="13" height="13" viewBox="0 0 13 13" fill="none" xmlns="http://www.w3.org/2000/svg">
<g clip-path="url(#clip0_469_21)">
<path d="M6.90234 7.23047C8.76562 7.23047 10.2773 5.71875 10.2773 3.85547C10.2773 1.99219 8.76562 0.480469 6.90234 0.480469C5.03906 0.480469 3.52734 1.99219 3.52734 3.85547C3.52734 5.71875 5.03906 7.23047 6.90234 7.23047ZM9.90234 7.98047H8.61094C8.09062 8.21953 7.51172 8.35547 6.90234 8.35547C6.29297 8.35547 5.71641 8.21953 5.19375 7.98047H3.90234C2.24531 7.98047 0.902344 9.32344 0.902344 10.9805V11.3555C0.902344 11.9766 1.40625 12.4805 2.02734 12.4805H11.7773C12.3984 12.4805 12.9023 11.9766 12.9023 11.3555V10.9805C12.9023 9.32344 11.5594 7.98047 9.90234 7.98047Z" fill="#21746A"/>
</g>
<defs>
<clipPath id="clip0_469_21">
<rect width="12" height="12" fill="white" transform="translate(0.902344 0.480469)"/>
</clipPath>
</defs>
</svg>

